<?xml version="1.0" encoding="utf-8"?>
<!-- Generator: Adobe Illustrator 24.2.3, SVG Export Plug-In . SVG Version: 6.00 Build 0)  -->
<svg version="1.1" id="Capa_1" xmlns="http://www.w3.org/2000/svg" xmlns:xlink="http://www.w3.org/1999/xlink" x="0px" y="0px"
	 viewBox="0 0 57.8 55" style="enable-background:new 0 0 57.8 55;" xml:space="preserve">
<style type="text/css">
	.st0{fill:#00BA4E;}
</style>
<path class="st0" d="M50.9,15.3C50.9,15.2,50.9,15.2,50.9,15.3c-2.3-4.1-5.6-7.4-9.6-9.7c0,0,0,0-0.1,0c-3.6-2.1-7.8-3.2-12.3-3.2
	C15,2.3,3.7,13.6,3.7,27.5S15,52.8,28.9,52.8s25.2-11.3,25.2-25.2C54.1,23.1,52.9,18.9,50.9,15.3z M47.2,40.1
	c-0.2-0.2-0.5-0.3-0.9-0.4l-7.9-0.4l-3.8-5.9l3.2-6.3l7-1.5l5.9,5.2c0,0,0,0,0.1,0C50.4,34.2,49.1,37.3,47.2,40.1z M16.3,18.9
	l-1.7-7.7c0-0.2-0.1-0.4-0.2-0.5c3.1-2.7,7-4.5,11.3-5.1c0,0,0,0,0,0.1l5.2,5.9l-1.6,7L23,21.8L16.3,18.9z M47.4,15.3l-3.2,7.2
	l-6.9,1.5l-5-5l1.5-6.9L41.2,9C43.6,10.7,45.8,12.8,47.4,15.3z M6.7,25.6c0.2,0.2,0.5,0.3,0.8,0.3c0.3,0,0.5-0.1,0.8-0.2l6.8-4
	l6.5,2.9l1.1,7l-5.1,5.1l-7.8-1.2c-0.6-0.1-1.2,0.2-1.5,0.7c-1.1-2.6-1.7-5.5-1.7-8.6C6.7,26.9,6.7,26.3,6.7,25.6z M20.3,48.1
	c0.5-0.3,0.8-0.9,0.7-1.5l-1.2-7.8l5.1-5.1l7.1,1.1l3.9,6.1l-2.9,7.4c-0.1,0.4-0.1,0.8,0,1.1c-1.4,0.3-2.8,0.4-4.2,0.4
	C25.8,49.8,23,49.2,20.3,48.1z"/>
</svg>
